<svg xmlns="http://www.w3.org/2000/svg" width="780" height="606" viewBox="0 0 780 606">
    <defs>
        <clipPath id="clip-path">
            <path id="Rectangle_128" d="M0 0H780V606H0z" class="cls-1" transform="translate(0 788)"/>
        </clipPath>
        <clipPath id="clip-path-2">
            <path id="Rectangle_67" d="M0 0H1920V697H0z" class="cls-1" transform="translate(0 788)"/>
        </clipPath>
        <style>
            .cls-1{fill:#9ca3a9}.cls-5{fill:#fff}
        </style>
    </defs>
    <g id="Mask_Group_4" clip-path="url(#clip-path)" transform="translate(0 -788)">
        <g id="Mask_Group_1" clip-path="url(#clip-path-2)">
            <g id="Group_65" opacity="0.17" transform="translate(434.859 503.629)">
                <path id="Path_114" d="M43.141 527a2.75 2.75 0 0 0 1.913.766 2.781 2.781 0 0 0 1.809-.664l38.692-33.34a2.543 2.543 0 0 0 .113-3.8l-263.335-253.871a2.8 2.8 0 0 0-2.476-.712c-16.378 3.323-37.821 8.111-58.392 15.714a2.642 2.642 0 0 0-1.681 1.9 2.529 2.529 0 0 0 .739 2.394z" class="cls-5" transform="translate(20.719 .259)"/>
                <path id="Path_115" d="M-143.464 490.071a2.752 2.752 0 0 0 1.913.759 2.954 2.954 0 0 0 .838-.122 224.63 224.63 0 0 1 61.008-10.037 2.7 2.7 0 0 0 2.434-1.648 2.541 2.541 0 0 0-.6-2.814L-287.752 273.88a2.8 2.8 0 0 0-3.047-.536c-18.9 8.307-33.979 16.4-47.479 25.452a2.577 2.577 0 0 0-1.147 1.919 2.524 2.524 0 0 0 .781 2.081z" class="cls-5" transform="translate(14.311 1.254)"/>
                <path id="Path_116" d="M-235.457 545a2.74 2.74 0 0 0 1.913.76 2.776 2.776 0 0 0 1.85-.7c12.15-10.912 25.439-22.1 40.269-29.99a2.623 2.623 0 0 0 1.372-1.925 2.545 2.545 0 0 0-.767-2.211l-186.772-180.042a2.775 2.775 0 0 0-3.568-.224c-11.818 8.742-23.814 19.091-38.882 33.556a2.563 2.563 0 0 0-.8 1.851 2.579 2.579 0 0 0 .8 1.859z" class="cls-5" transform="translate(9.05 2.754)"/>
                <path id="Path_117" d="M10.44 716.806a2.763 2.763 0 0 0-1.921-.759h-73.311a2.72 2.72 0 0 0-2.511 1.607 2.566 2.566 0 0 0 .591 2.856l338.751 326.47a2.768 2.768 0 0 0 1.921.766h.006a2.791 2.791 0 0 0 1.928-.786l36.181-35.714a2.547 2.547 0 0 0-.021-3.675z" class="cls-5" transform="translate(31.885 12.908)"/>
                <path id="Path_118" d="M156.766 716.806a2.76 2.76 0 0 0-1.913-.759H81.667a2.7 2.7 0 0 0-2.505 1.614 2.544 2.544 0 0 0 .591 2.849L299.168 931.2a2.778 2.778 0 0 0 1.921.774 2.707 2.707 0 0 0 1.041-.21 2.6 2.6 0 0 0 1.667-2.408v-69.71a2.571 2.571 0 0 0-.794-1.851z" class="cls-5" transform="translate(41.351 12.908)"/>
                <path id="Path_119" d="M116.794 455.69a2.779 2.779 0 0 0 3.742.081l37.806-33.265a2.557 2.557 0 0 0 .092-3.778L-38.582 227.942a2.8 2.8 0 0 0-1.737-.767c-12.459-.8-26.585-1.709-41.38-1.709-10.876 0-22.119 0-33 1.011a2.682 2.682 0 0 0-2.293 1.722 2.521 2.521 0 0 0 .633 2.726z" class="cls-5" transform="translate(28.677)"/>
                <path id="Path_120" d="M186.975 383.723a2.764 2.764 0 0 0 1.921.767 2.735 2.735 0 0 0 1.8-.665l44.96-38.521a2.553 2.553 0 0 0-.02-3.934c-56.942-47.486-119.715-80.283-186.57-97.488a2.752 2.752 0 0 0-3.046 1.22 2.546 2.546 0 0 0 .429 3.154z" class="cls-5" transform="translate(39.199 .482)"/>
                <path id="Path_121" d="M225.481 1052.686a3.488 3.488 0 0 0-4.475-.271c-79.215 59.185-174.018 90.463-274.148 90.463-119.679 0-232.163-44.9-316.738-126.427-159.056-153.337-175.1-398.222-37.3-569.62a3.176 3.176 0 0 0-.281-4.313l-38.756-37.355a3.489 3.489 0 0 0-2.589-.957 3.463 3.463 0 0 0-2.462 1.242c-159.984 195.079-143.079 474.8 39.333 650.642a507.224 507.224 0 0 0 167.814 107.465 523.712 523.712 0 0 0 191.88 36.113 524.634 524.634 0 0 0 164.4-26.28A513.2 513.2 0 0 0 263 1094.008a3.256 3.256 0 0 0 1.281-2.374 3.209 3.209 0 0 0-.985-2.5z" class="cls-5" transform="translate(0 4.703)"/>
                <path id="Path_122" d="M-303.861 945.44C-424.1 829.525-439.37 648.762-340.155 515.621a3.179 3.179 0 0 0-.351-4.218l-35.218-33.943a3.462 3.462 0 0 0-2.638-.949 3.428 3.428 0 0 0-2.476 1.3c-57.652 74.431-85.581 166.447-78.644 259.1s48.275 179.848 116.409 245.522a399.977 399.977 0 0 0 132.259 84.706 412.964 412.964 0 0 0 151.407 28.517 414.007 414.007 0 0 0 124.527-19.083 405.6 405.6 0 0 0 115.27-57.734 3.234 3.234 0 0 0 1.351-2.38 3.2 3.2 0 0 0-.978-2.55l-34.38-33.143a3.492 3.492 0 0 0-4.376-.346c-59.107 40.929-128.771 62.57-201.47 62.57-92.343 0-179.141-34.648-244.4-97.55" class="cls-5" transform="translate(6.485 6.605)"/>
                <path id="Path_123" d="M65.085 906.51a3.482 3.482 0 0 0-4.172-.468A249.717 249.717 0 0 1-66.5 940.847c-65 0-126.082-24.374-172.013-68.652-79.975-77.1-94.418-195.791-35.113-288.642a3.174 3.174 0 0 0-.492-4.021l-35.134-33.875a3.485 3.485 0 0 0-2.73-.943 3.406 3.406 0 0 0-2.483 1.431 283.26 283.26 0 0 0-42.351 91.928 278.851 278.851 0 0 0-7.387 97.585 281.116 281.116 0 0 0 26.677 94.4 288.8 288.8 0 0 0 59.875 82.379 299.676 299.676 0 0 0 98.928 63.377 309.255 309.255 0 0 0 113.5 21.41 307.02 307.02 0 0 0 167.532-49.311 3.2 3.2 0 0 0 .507-5.025z" class="cls-5" transform="translate(12.619 8.399)"/>
            </g>
        </g>
    </g>
</svg>
