<svg xmlns="http://www.w3.org/2000/svg" width="22.779" height="18.638" viewBox="0 0 22.779 18.638">
  <g id="noun_work_experience_1079703" data-name="noun_work experience_1079703" transform="translate(104.39 47.319)">
    <g id="Group_77" data-name="Group 77" transform="translate(-110.39 -1013.681)">
      <path id="Path_138" data-name="Path 138" d="M14.8,966.362a2.094,2.094,0,0,0-1.116.3,1.5,1.5,0,0,0-.7,1.254v1.553H6.469a.518.518,0,0,0-.469.518v11.907A3.111,3.111,0,0,0,9.106,985H25.673a3.111,3.111,0,0,0,3.106-3.106V969.986c0-.016,0-.032,0-.049a.6.6,0,0,0-.283-.413l-.049-.016a.518.518,0,0,0-.1-.032H28.3l-.04-.008H21.79v-1.553a1.5,1.5,0,0,0-.7-1.254,2.094,2.094,0,0,0-1.116-.3H14.8Zm0,1.035h5.177a1.222,1.222,0,0,1,.566.146.357.357,0,0,1,.21.372v1.553h-6.73v-1.553a.357.357,0,0,1,.21-.372,1.222,1.222,0,0,1,.566-.146ZM7.035,970.5H27.743v3.584a.274.274,0,0,0-.04.032,1.419,1.419,0,0,1-.4.235,4.456,4.456,0,0,1-1.634.291H19.2v-.518a1.561,1.561,0,0,0-1.553-1.553h-.518a1.561,1.561,0,0,0-1.553,1.553v.518H9.106a4.456,4.456,0,0,1-1.634-.291,1.419,1.419,0,0,1-.4-.235.269.269,0,0,0-.04-.032V970.5Zm10.1,3.106h.518a.506.506,0,0,1,.518.518V976.2a.506.506,0,0,1-.518.518h-.518a.506.506,0,0,1-.518-.518v-2.071A.506.506,0,0,1,17.131,973.61Zm-10.1,1.683.04.016a5.357,5.357,0,0,0,2.03.372h6.471v.518a1.561,1.561,0,0,0,1.553,1.553h.518A1.561,1.561,0,0,0,19.2,976.2v-.518h6.471a5.357,5.357,0,0,0,2.03-.372l.04-.016v6.6a2.055,2.055,0,0,1-2.071,2.071H9.106a2.055,2.055,0,0,1-2.071-2.071v-6.6Z" transform="translate(0)" fill="#d0d4d8"/>
    </g>
  </g>
</svg>
