<svg xmlns="http://www.w3.org/2000/svg" width="35.744" height="35.744" viewBox="0 0 35.744 35.744">
    <defs>
        <style>
            .cls-1{fill:#fefefe;stroke:#fefefe;stroke-width:.2px}
        </style>
    </defs>
    <g id="noun_electrical_2363405" transform="translate(-24.729 -111.577)">
        <g id="Group_121" transform="translate(24.829 111.677)">
            <g id="Group_120">
                <g id="Group_112" transform="translate(8.187 17.526)">
                    <path id="Path_178" d="M141.2 257.8a2.409 2.409 0 1 1 2.408-2.409 2.411 2.411 0 0 1-2.408 2.409zm0-4.044a1.636 1.636 0 1 0 1.636 1.636 1.638 1.638 0 0 0-1.636-1.634z" class="cls-1" transform="translate(-138.795 -252.985)"/>
                </g>
                <g id="Group_113" transform="translate(2.318 10.785)">
                    <path id="Path_179" d="M75.136 187.589a7.817 7.817 0 0 1-1.355-.119 8.037 8.037 0 0 1-4.823-2.877 8.773 8.773 0 0 1-1.936-5.521v-8.13a.386.386 0 0 1 .386-.386h15.455a.386.386 0 0 1 .386.386v8.13a8.45 8.45 0 0 1-6.081 8.247 7.783 7.783 0 0 1-2.032.27zM67.8 171.33v7.743a7.608 7.608 0 0 0 6.12 7.636 7.044 7.044 0 0 0 3.051-.135 7.676 7.676 0 0 0 5.51-7.5v-7.744z" class="cls-1" transform="translate(-67.023 -170.557)"/>
                </g>
                <g id="Group_114" transform="translate(4.636)">
                    <path id="Path_180" d="M98.847 47.538h-3.091a.386.386 0 0 1-.386-.386v-6.543a1.932 1.932 0 1 1 3.863 0v6.543a.386.386 0 0 1-.386.386zm-2.7-.773h2.318v-6.156a1.159 1.159 0 1 0-2.318 0v6.157z" class="cls-1" transform="translate(-95.37 -38.677)"/>
                </g>
                <g id="Group_115" transform="translate(12.363)">
                    <path id="Path_181" d="M193.336 47.538h-3.091a.386.386 0 0 1-.386-.386v-6.543a1.932 1.932 0 1 1 3.863 0v6.543a.386.386 0 0 1-.386.386zm-2.7-.773h2.318v-6.156a1.159 1.159 0 1 0-2.318 0z" class="cls-1" transform="translate(-189.859 -38.677)"/>
                </g>
                <g id="Group_116" transform="translate(.773 8.089)">
                    <path id="Path_182" d="M67.057 141.056H48.512a.386.386 0 0 1-.386-.386v-2.7a.386.386 0 0 1 .386-.386h18.545a.386.386 0 0 1 .386.386v2.7a.386.386 0 0 1-.386.386zm-18.157-.773h17.771v-1.923H48.9z" class="cls-1" transform="translate(-48.126 -137.587)"/>
                </g>
                <g id="Group_117" transform="translate(2.318 13.481)">
                    <path id="Path_183" d="M77.323 204.3h-9.914a.386.386 0 1 1 0-.773h9.914a.386.386 0 1 1 0 .773z" class="cls-1" transform="translate(-67.023 -203.529)"/>
                </g>
                <g id="Group_118" transform="translate(14.928 13.481)">
                    <path id="Path_184" d="M224.451 204.3h-2.844a.386.386 0 1 1 0-.773h2.844a.386.386 0 1 1 0 .773z" class="cls-1" transform="translate(-221.22 -203.529)"/>
                </g>
                <g id="Group_119" transform="translate(0 25.499)">
                    <path id="Path_185" d="M67.653 360.534H41.381a2.7 2.7 0 1 1 0-5.409h5.409a1.934 1.934 0 0 0 1.932-1.932v-.773a.386.386 0 1 1 .773 0v.773a2.707 2.707 0 0 1-2.7 2.7h-5.414a1.932 1.932 0 1 0 0 3.863h26.272a1.932 1.932 0 0 0 0-3.863H63.79a2.7 2.7 0 0 1 0-5.409h10.045a.386.386 0 1 1 0 .773H63.79a1.932 1.932 0 1 0 0 3.863h3.863a2.7 2.7 0 1 1 0 5.409z" class="cls-1" transform="translate(-38.677 -350.489)"/>
                </g>
            </g>
        </g>
    </g>
</svg>