<svg xmlns="http://www.w3.org/2000/svg" width="76.875" height="71.333" viewBox="0 0 76.875 71.333">
<defs>
<style>
            .cls-1{fill:#485d76;stroke:#485d76}
        </style>
</defs>
<g id="noun_Checklist_2176783" transform="translate(.5 .5)">
<g id="Group_46">
<g id="Group_23" transform="translate(5.657 7.848)">
<path id="Path_78" d="M112.8 132.208H62.549a.478.478 0 0 1-.5-.453v-56.3a.478.478 0 0 1 .5-.453h13.644a.478.478 0 0 1 .5.453v2.717h21.8v-2.713a.478.478 0 0 1 .5-.453H112.8a.478.478 0 0 1 .5.453v23.847a.445.445 0 0 1-.237.385.543.543 0 0 1-.486.02 2.183 2.183 0 0 0-.881-.223c-.962 0-1.055 1.086-1.058 1.456.137 1.171.944 2.474 2.536 4.1a.43.43 0 0 1 .126.3v26.413a.478.478 0 0 1-.5.451zm-49.752-.908H112.3v-25.786c-1.666-1.727-2.512-3.16-2.66-4.5a.407.407 0 0 1 0-.045c0-1.448.807-2.384 2.057-2.384a2.736 2.736 0 0 1 .605.071V75.912H99.487v2.717a.478.478 0 0 1-.5.453H76.193a.478.478 0 0 1-.5-.453v-2.717H63.048z" class="cls-1" transform="translate(-62.05 -75.006)"></path>
</g>
<g id="Group_24" transform="translate(53.243 31.421)">
<path id="Path_79" d="M354.205 258.629a.548.548 0 0 1-.134-.016l-2.995-.755a.462.462 0 0 1-.366-.436v-17.961a.438.438 0 0 1 .187-.353.539.539 0 0 1 .42-.089l.643.13c-1.894-1.668-3.764-3.407-3.911-5.546v-.028a2.161 2.161 0 0 1 2.163-2.387c1.564 0 3.426 1.4 5.245 3.953l.009.013a4.1 4.1 0 0 0 2.148 1.344c1.6.613 3.583 1.373 3.893 4.788l.743.337a.434.434 0 0 1 .223.608l-.145.263-1.152 3.732-2.494 8.6-.834 2.723a.479.479 0 0 1-.354.317l-3.161.755a.54.54 0 0 1-.128.008zm-2.5-1.552l2.5.63 2.753-.657.755-2.466 2.494-8.6 1.158-3.751-.565-.256a.453.453 0 0 1-.275-.379c-.194-3.077-1.7-3.656-3.3-4.269a4.976 4.976 0 0 1-2.611-1.705c-2.34-3.278-3.961-3.533-4.4-3.533-.853 0-1.16.756-1.164 1.468.139 1.891 2.049 3.568 3.9 5.19.321.282.641.563.95.843a.422.422 0 0 1 .081.543.521.521 0 0 1-.555.216l-.606-.137h-.1a.55.55 0 0 1-.108-.011l-.89-.179z" class="cls-1" transform="translate(-348.049 -231.187)"></path>
</g>
<g id="Group_25" transform="translate(61.729 41.657)">
<path id="Path_80" d="M407.7 318.778a.542.542 0 0 1-.128-.015l-8.153-1.962a.494.494 0 0 1-.3-.211.415.415 0 0 1-.05-.344l4.992-16.9a.506.506 0 0 1 .61-.32l8.153 1.962a.5.5 0 0 1 .3.211.416.416 0 0 1 .05.344l-4.992 16.9a.494.494 0 0 1-.482.335zm-7.542-2.736l7.188 1.73 4.733-16.029-7.188-1.73z" class="cls-1" transform="translate(-399.051 -299.006)"></path>
</g>
<g id="Group_26" transform="translate(65.525 54.599)">
<path id="Path_81" d="M423.66 388.143a1.768 1.768 0 0 1-.39-.043.527.527 0 0 1-.1-.034 1.842 1.842 0 0 1-1.262-2.014 1.78 1.78 0 0 1 1.808-1.3 2.09 2.09 0 0 1 .464.051 1.7 1.7 0 0 1 1.367 2.037l-.005.021a1.965 1.965 0 0 1-1.882 1.282zm-.1-.912a.709.709 0 0 0 .1.007 1 1 0 0 0 .908-.582.8.8 0 0 0-.632-.97 1.013 1.013 0 0 0-.222-.024.8.8 0 0 0-.832.579c0 .007 0 .014-.005.021-.102.369.259.758.683.968z" class="cls-1" transform="translate(-421.862 -384.755)"></path>
</g>
<g id="Group_27" transform="translate(55.906 59.768)">
<path id="Path_82" d="M374.365 421.42a.544.544 0 0 1-.127-.015l-6.129-1.463-1.322.666a.542.542 0 0 1-.364.044l-2-.453a.452.452 0 0 1-.363-.549.5.5 0 0 1 .605-.329l1.805.409 1.325-.668a.544.544 0 0 1 .37-.042l6.323 1.509a.45.45 0 0 1 .356.553.494.494 0 0 1-.479.338z" class="cls-1" transform="translate(-364.049 -419.005)"></path>
</g>
<g id="Group_28" transform="translate(1.664 69.428)">
<path id="Path_83" d="M78.815 483.912H38.549a.455.455 0 1 1 0-.906h40.266a.455.455 0 1 1 0 .906z" class="cls-1" transform="translate(-38.05 -483.006)"></path>
</g>
<g id="Group_29" transform="translate(25.291 67.013)">
<path id="Path_84" d="M208.5 467.912h-27.951a.455.455 0 1 1 0-.906H208.5a.455.455 0 1 1 0 .906z" class="cls-1" transform="translate(-180.05 -467.006)"></path>
</g>
<g id="Group_30" transform="translate(56.072 67.013)">
<path id="Path_85" d="M369.043 467.912h-3.494a.455.455 0 1 1 0-.906h3.494a.455.455 0 1 1 0 .906z" class="cls-1" transform="translate(-365.05 -467.006)"></path>
</g>
<g id="Group_31" transform="translate(0 67.013)">
<path id="Path_86" d="M41.86 467.912H28.549a.455.455 0 1 1 0-.906H41.86a.455.455 0 1 1 0 .906z" class="cls-1" transform="translate(-28.05 -467.006)"></path>
</g>
<g id="Group_32" transform="translate(56.571 69.428)">
<path id="Path_87" d="M380.7 483.912h-12.151a.455.455 0 1 1 0-.906H380.7a.455.455 0 1 1 0 .906z" class="cls-1" transform="translate(-368.05 -483.006)"></path>
</g>
<g id="Group_33" transform="translate(19.301)">
<path id="Path_88" d="M167.344 34.929h-22.795a.478.478 0 0 1-.5-.453v-6.791a.478.478 0 0 1 .5-.453h6.344a4.868 4.868 0 0 1 5.136-4.226 5 5 0 0 1 5.134 4.226h6.18a.478.478 0 0 1 .5.453v6.792a.478.478 0 0 1-.499.452zm-22.3-.906h21.8v-5.885h-6.156a.478.478 0 0 1-.5-.453 3.985 3.985 0 0 0-4.16-3.773 3.893 3.893 0 0 0-4.16 3.773.478.478 0 0 1-.5.453h-6.323z" class="cls-1" transform="translate(-144.05 -23.006)"></path>
</g>
<g id="Group_34" transform="translate(13.81 20.225)">
<path id="Path_89" d="M117.373 163.043h-5.824a.478.478 0 0 1-.5-.453v-5.132a.478.478 0 0 1 .5-.453h5.824a.478.478 0 0 1 .5.453v5.132a.478.478 0 0 1-.5.453zm-5.324-.906h4.825v-4.226h-4.825z" class="cls-1" transform="translate(-111.05 -157.006)"></path>
</g>
<g id="Group_35" transform="translate(21.464 25.054)">
<path id="Path_90" d="M180.011 189.912h-22.462a.455.455 0 1 1 0-.906h22.462a.455.455 0 1 1 0 .906z" class="cls-1" transform="translate(-157.05 -189.006)"></path>
</g>
<g id="Group_36" transform="translate(13.81 31.393)">
<path id="Path_91" d="M117.373 237.043h-5.824a.478.478 0 0 1-.5-.453v-5.132a.478.478 0 0 1 .5-.453h5.824a.478.478 0 0 1 .5.453v5.132a.478.478 0 0 1-.5.453zm-5.324-.906h4.825v-4.226h-4.825z" class="cls-1" transform="translate(-111.05 -231.006)"></path>
</g>
<g id="Group_37" transform="translate(15.807 32.903)">
<path id="Path_92" d="M124.548 243.571a.515.515 0 0 1-.415-.2l-1-1.358a.428.428 0 0 1 .138-.628.532.532 0 0 1 .692.126l.775 1.055 4.284-1.527a.517.517 0 0 1 .647.256.441.441 0 0 1-.282.587l-4.659 1.66a.546.546 0 0 1-.18.029z" class="cls-1" transform="translate(-123.05 -241.005)"></path>
</g>
<g id="Group_38" transform="translate(21.464 36.223)">
<path id="Path_93" d="M180.011 263.912h-22.462a.455.455 0 1 1 0-.906h22.462a.455.455 0 1 1 0 .906z" class="cls-1" transform="translate(-157.05 -263.006)"></path>
</g>
<g id="Group_39" transform="translate(13.81 42.562)">
<path id="Path_94" d="M117.373 311.043h-5.824a.478.478 0 0 1-.5-.453v-5.132a.478.478 0 0 1 .5-.453h5.824a.478.478 0 0 1 .5.453v5.132a.478.478 0 0 1-.5.453zm-5.324-.906h4.825v-4.226h-4.825z" class="cls-1" transform="translate(-111.05 -305.006)"></path>
</g>
<g id="Group_40" transform="translate(21.464 47.392)">
<path id="Path_95" d="M180.011 337.912h-22.462a.455.455 0 1 1 0-.906h22.462a.455.455 0 1 1 0 .906z" class="cls-1" transform="translate(-157.05 -337.006)"></path>
</g>
<g id="Group_41" transform="translate(13.81 53.731)">
<path id="Path_96" d="M117.373 385.043h-5.824a.478.478 0 0 1-.5-.453v-5.132a.478.478 0 0 1 .5-.453h5.824a.478.478 0 0 1 .5.453v5.132a.478.478 0 0 1-.5.453zm-5.324-.906h4.825v-4.226h-4.825z" class="cls-1" transform="translate(-111.05 -379.006)"></path>
</g>
<g id="Group_42" transform="translate(15.807 55.24)">
<path id="Path_97" d="M124.548 391.571a.515.515 0 0 1-.415-.2l-1-1.358a.428.428 0 0 1 .138-.628.532.532 0 0 1 .692.126l.775 1.055 4.284-1.527a.517.517 0 0 1 .647.256.44.44 0 0 1-.282.587l-4.659 1.66a.547.547 0 0 1-.18.029z" class="cls-1" transform="translate(-123.05 -389.005)"></path>
</g>
<g id="Group_43" transform="translate(21.464 58.561)">
<path id="Path_98" d="M180.011 411.912h-22.462a.455.455 0 1 1 0-.906h22.462a.455.455 0 1 1 0 .906z" class="cls-1" transform="translate(-157.05 -411.006)"></path>
</g>
<g id="Group_44" transform="translate(28.951 3.471)">
<path id="Path_99" d="M204.379 50.081a2.232 2.232 0 0 1-2.329-2.113 2.121 2.121 0 0 1 2.329-1.962 1.98 1.98 0 0 1 2.163 1.962 2.092 2.092 0 0 1-2.163 2.113zm0-3.17c-.662 0-1.331.363-1.331 1.057a1.291 1.291 0 0 0 1.331 1.207 1.15 1.15 0 0 0 1.165-1.207 1.034 1.034 0 0 0-1.165-1.056z" class="cls-1" transform="translate(-202.05 -46.006)"></path>
</g>
<g id="Group_45" transform="translate(2.163 4.83)">
<path id="Path_100" d="M41.549 74.778a.478.478 0 0 1-.5-.453V55.459a.478.478 0 0 1 .5-.453h9.983a.455.455 0 1 1 0 .906h-9.484v18.413a.478.478 0 0 1-.499.453z" class="cls-1" transform="translate(-41.05 -55.006)"></path>
</g>
</g>
</g>
</svg>