<svg xmlns="http://www.w3.org/2000/svg" width="207.692" height="57.409" viewBox="0 0 207.692 57.409">
  <g id="Group_125" data-name="Group 125" transform="translate(-13958.806 -2158.561)">
    <path id="Path_1" d="M226,244.108a.173.173,0,0,0,.112.044.141.141,0,0,0,.1-.04l2.2-1.954a.147.147,0,0,0,.052-.111.143.143,0,0,0-.044-.111l-14.978-14.9a.153.153,0,0,0-.14-.04,22.1,22.1,0,0,0-3.321.919.147.147,0,0,0-.1.111.159.159,0,0,0,.04.143Z" transform="translate(13768.282 1932.179)" fill="#777d7f"/>
    <path id="Path_2" d="M206.018,245.424a.156.156,0,0,0,.108.044h.048a12.546,12.546,0,0,1,3.469-.589.156.156,0,0,0,.14-.1.163.163,0,0,0-.036-.167L197.81,232.744a.165.165,0,0,0-.172-.032,17.238,17.238,0,0,0-2.7,1.492.155.155,0,0,0-.068.115.151.151,0,0,0,.044.119Z" transform="translate(13777.287 1928.742)" fill="#777d7f"/>
    <path id="Path_3" d="M193.094,253.929a.172.172,0,0,0,.112.044.156.156,0,0,0,.1-.04,12,12,0,0,1,2.289-1.759.159.159,0,0,0,.08-.115.139.139,0,0,0-.044-.127l-10.624-10.57a.153.153,0,0,0-.2,0,22.2,22.2,0,0,0-2.209,1.966.151.151,0,0,0-.048.111.143.143,0,0,0,.048.107Z" transform="translate(13784.677 1923.552)" fill="#777d7f"/>
    <path id="Path_4" d="M240.455,299.754a.157.157,0,0,0-.108-.044h-4.17a.156.156,0,0,0-.144.092.159.159,0,0,0,.036.171l19.268,19.155a.145.145,0,0,0,.108.048.169.169,0,0,0,.112-.048l2.057-2.093a.155.155,0,0,0,0-.219Z" transform="translate(13752.603 1888.401)" fill="#777d7f"/>
    <path id="Path_5" d="M262.616,299.754a.157.157,0,0,0-.108-.044h-4.166a.152.152,0,0,0-.14.1.155.155,0,0,0,.032.167l12.481,12.361a.144.144,0,0,0,.108.048.16.16,0,0,0,.06,0,.151.151,0,0,0,.1-.143v-4.1a.155.155,0,0,0-.044-.108Z" transform="translate(13739.305 1888.401)" fill="#777d7f"/>
    <path id="Path_6" d="M284.181,299.71h-3.569a.152.152,0,0,0-.14.092.159.159,0,0,0,.032.171l3.57,3.55a.156.156,0,0,0,.108.044h.06a.151.151,0,0,0,.1-.143v-3.55a.152.152,0,0,0-.156-.151" transform="translate(13725.946 1888.401)" fill="#777d7f"/>
    <path id="Path_7" d="M241.819,238.978a.145.145,0,0,0,.108.048.176.176,0,0,0,.1-.04l2.149-1.954a.163.163,0,0,0,.052-.107.159.159,0,0,0-.048-.115l-11.2-11.2a.177.177,0,0,0-.1-.044c-.708-.048-1.513-.1-2.353-.1-.62,0-1.257,0-1.877.06a.152.152,0,0,0-.132.1.155.155,0,0,0,.036.159Z" transform="translate(13757.108 1933.095)" fill="#777d7f"/>
    <path id="Path_8" d="M261.19,236.45a.145.145,0,0,0,.108.048.177.177,0,0,0,.1-.04l2.557-2.261a.163.163,0,0,0,.052-.115.147.147,0,0,0-.056-.115,26.783,26.783,0,0,0-10.612-5.723.155.155,0,0,0-.148.258Z" transform="translate(13742.327 1931.427)" fill="#777d7f"/>
    <path id="Path_9" d="M206.169,290.593a.193.193,0,0,0-.256,0A25.565,25.565,0,0,1,172.3,288.48a25.274,25.274,0,0,1-2.121-33.431.186.186,0,0,0,0-.251l-2.2-2.193a.189.189,0,0,0-.148-.056.193.193,0,0,0-.14.072,28.651,28.651,0,0,0,2.278,38.13,29.04,29.04,0,0,0,38.338,2.266.179.179,0,0,0,.072-.139.186.186,0,0,0-.056-.147Z" transform="translate(13797.309 1916.793)" fill="#777d7f"/>
    <path id="Path_10" d="M185.485,290.976a19.391,19.391,0,0,1-2.065-25.224.194.194,0,0,0,0-.247l-2-1.99a.188.188,0,0,0-.148-.056.208.208,0,0,0-.144.076,22.594,22.594,0,0,0,2.143,29.62,22.9,22.9,0,0,0,29.782,2.131.206.206,0,0,0,.076-.143.186.186,0,0,0-.056-.147l-1.953-1.946a.2.2,0,0,0-.252-.02,19.72,19.72,0,0,1-25.358-2.054" transform="translate(13788.252 1910.225)" fill="#777d7f"/>
    <path id="Path_11" d="M215.409,295.006a.189.189,0,0,0-.236-.028,13.886,13.886,0,0,1-17.026-1.991,13.7,13.7,0,0,1-2-16.934.2.2,0,0,0-.028-.239l-2-1.99a.2.2,0,0,0-.156-.056.188.188,0,0,0-.14.084,16.917,16.917,0,0,0,2.09,21.5,17.149,17.149,0,0,0,21.615,2.079.187.187,0,0,0,.032-.294Z" transform="translate(13779.66 1904.019)" fill="#777d7f"/>
    <path id="Path_12" d="M340.121,274c0,5.245-3.829,9.5-9.1,9.5a9.5,9.5,0,1,1,0-18.992,9.077,9.077,0,0,1,8.243,5.174l-2.693.772a6.147,6.147,0,0,0-5.55-3.311,6.846,6.846,0,0,0,0,13.691,6.172,6.172,0,0,0,6.27-5.078h-6.935V273.1l9.712.028a7.674,7.674,0,0,1,.056.856" transform="translate(13701.347 1909.598)" fill="#183b6b"/>
    <path id="Path_13" d="M389.959,278.962H381.58l-1.8,3.98h-2.89l8.88-18.992,8.884,18.992h-2.889Zm-1.22-2.655-2.969-6.515-2.969,6.515Z" transform="translate(13668.104 1909.929)" fill="#183b6b"/>
    <path id="Path_14" d="M444.736,283.6l-4.638-6.4h-2.913v6.4H434.52V265.05h5.794c4.858,0,7.1,2.432,7.1,5.938a5.873,5.873,0,0,1-4.358,5.97l4.8,6.65Zm-7.551-9.054h3.969c1.941,0,3.582-.991,3.582-3.395a3.218,3.218,0,0,0-3.525-3.451h-4.026Z" transform="translate(13633.534 1909.267)" fill="#183b6b"/>
    <path id="Path_15" d="M497.824,274.327c0,5.134-3.437,9.273-9.516,9.273H482.73V265.05h5.578c6.214,0,9.516,4.143,9.516,9.277m-2.665,0c0-3.673-2.525-6.626-6.158-6.626h-3.6V280.95H489c3.633,0,6.158-2.953,6.158-6.622" transform="translate(13604.616 1909.267)" fill="#183b6b"/>
    <path id="Rectangle_1" d="M0,0H2.665V18.55H0Z" transform="translate(14108.406 2174.321)" fill="#183b6b"/>
    <path id="Path_16" d="M401.011,44.772v12.7H398.35V38.48l12.877,13.138v-12.7h2.665v19Z" transform="translate(13719.801 2135.399)" fill="#183b6b"/>
    <path id="Rectangle_2" d="M0,0H2.665V18.55H0Z" transform="translate(14140.768 2174.321)" fill="#183b6b"/>
    <path id="Path_17" d="M649.213,278.962H640.83l-1.8,3.98h-2.89l8.879-18.992,8.884,18.992h-2.889Zm-1.224-2.655-2.969-6.515-2.969,6.515Z" transform="translate(13512.595 1909.929)" fill="#183b6b"/>
    <path id="Path_18" d="M327.7,333.783l.224.629a2.473,2.473,0,0,1-1.533.553,2.171,2.171,0,0,1-1.653-.693,2.146,2.146,0,0,1-.56-1.695,2.752,2.752,0,0,1,2.7-2.388,2.008,2.008,0,0,1,1.417.545l-.348.625a1.456,1.456,0,0,0-1.18-.5,1.973,1.973,0,0,0-1.917,1.731,1.531,1.531,0,0,0,.385,1.224,1.548,1.548,0,0,0,1.184.507,1.762,1.762,0,0,0,1.281-.509" transform="translate(13699.729 1870.053)" fill="#777d7f"/>
    <path id="Path_19" d="M345.9,332.537a2.728,2.728,0,0,1-2.657,2.388,2.154,2.154,0,0,1-1.632-.7,2.13,2.13,0,0,1-.541-1.685,2.728,2.728,0,0,1,2.657-2.388,2.146,2.146,0,0,1,1.635.7,2.121,2.121,0,0,1,.538,1.688m-.672,0a1.526,1.526,0,0,0-.383-1.225,1.544,1.544,0,0,0-1.186-.506,1.953,1.953,0,0,0-1.913,1.731,1.523,1.523,0,0,0,.38,1.225,1.541,1.541,0,0,0,1.184.506,1.957,1.957,0,0,0,1.917-1.731" transform="translate(13689.601 1870.077)" fill="#777d7f"/>
    <path id="Path_20" d="M199.87,106.1l-.324,3.212h-.676l.488-4.8,2.921,3.323.324-3.212h.672l-.484,4.8Z" transform="translate(13839.457 2095.648)" fill="#777d7f"/>
    <path id="Path_21" d="M220.743,104.79l-.068.669h-1.236l-.408,4.024h-.676l.408-4.024H217.53l.068-.669Z" transform="translate(13828.265 2095.48)" fill="#777d7f"/>
    <path id="Path_22" d="M396.125,334.964l-1.012-1.612h-.736l-.164,1.62h-.672l.476-4.692h1.457c1.228,0,1.737.613,1.649,1.5a1.69,1.69,0,0,1-1.257,1.508l1.044,1.683Zm-1.677-2.292h1a.915.915,0,0,0,.68-.22.9.9,0,0,0,.312-.64.718.718,0,0,0-.172-.643.726.726,0,0,0-.628-.228h-1.016Z" transform="translate(13658.116 1869.998)" fill="#777d7f"/>
    <path id="Path_23" d="M412.055,333.789h-2.121l-.556,1.007h-.728l2.733-4.8,1.757,4.8h-.728Zm-.24-.669-.584-1.648-.916,1.648Z" transform="translate(13649.053 1870.166)" fill="#777d7f"/>
    <path id="Path_24" d="M430.092,333.783l.224.629a2.474,2.474,0,0,1-1.533.553,2.17,2.17,0,0,1-1.653-.693,2.146,2.146,0,0,1-.56-1.7,2.752,2.752,0,0,1,2.7-2.388,2.008,2.008,0,0,1,1.417.545l-.348.625a1.456,1.456,0,0,0-1.18-.5,1.965,1.965,0,0,0-1.913,1.731,1.527,1.527,0,0,0,.382,1.224,1.545,1.545,0,0,0,1.183.508,1.762,1.762,0,0,0,1.281-.509" transform="translate(13638.312 1870.053)" fill="#777d7f"/>
    <path id="Path_25" d="M285.793,104.79l-.068.669h-1.232l-.408,4.024h-.676l.408-4.024H282.58l.068-.669Z" transform="translate(13789.244 2095.48)" fill="#777d7f"/>
    <path id="Path_26" d="M297.23,109.482l.476-4.692h.676l-.476,4.692Z" transform="translate(13780.456 2095.48)" fill="#777d7f"/>
    <path id="Path_27" d="M308.29,106.1l-.328,3.212h-.672l.484-4.8,2.921,3.323.328-3.212h.672l-.488,4.8Z" transform="translate(13774.422 2095.648)" fill="#777d7f"/>
    <path id="Path_28" d="M491.435,332.537a2.623,2.623,0,0,1-2.549,2.388,2.15,2.15,0,0,1-1.631-.7,2.125,2.125,0,0,1-.538-1.685,2.724,2.724,0,0,1,2.657-2.388,2.025,2.025,0,0,1,1.953,1.313l-.7.2a1.377,1.377,0,0,0-1.321-.84,1.968,1.968,0,0,0-1.917,1.731,1.534,1.534,0,0,0,.385,1.221,1.553,1.553,0,0,0,1.18.51A1.767,1.767,0,0,0,490.671,333h-1.753l.068-.669h2.457a2.053,2.053,0,0,1,0,.215" transform="translate(13602.234 1870.077)" fill="#777d7f"/>
  </g>
</svg>
