<svg xmlns="http://www.w3.org/2000/svg" id="noun_quality_management_1327237" width="81.666" height="81.686" viewBox="0 0 81.666 81.686">
    <defs>
        <style>
            .cls-1{fill:#485d76}
        </style>
    </defs>
    <g id="Group_52">
        <g id="Group_47" transform="translate(28.166 51.518)">
            <path id="Path_101" d="M42.615 48.778a1.287 1.287 0 0 0-1.608.742l-6.063 17.075-.99-5.444a1.2 1.2 0 0 0-.866-.99 1.524 1.524 0 0 0-1.237.247l-4.083 3.712 6.681-19.8a1.253 1.253 0 0 0-2.351-.866l-8.29 24.251a1.42 1.42 0 0 0 .495 1.485 1.3 1.3 0 0 0 1.485-.124l5.939-5.444 1.361 8.042a1.21 1.21 0 0 0 2.351.124l7.671-21.649a.816.816 0 0 0-.495-1.361z" class="cls-1" transform="translate(-23.764 -42.637)"/>
        </g>
        <g id="Group_48" transform="translate(61.222 52.437)">
            <path id="Path_102" d="M70.8 67.161l-9.4-23.014a1.219 1.219 0 1 0-2.227.99l7.54 18.563-4.331-3.464a1.138 1.138 0 0 0-1.237-.124 1.078 1.078 0 0 0-.742.99l-.619 5.32-6.928-16.955a1.219 1.219 0 1 0-2.227.99l8.785 21.405a1.246 1.246 0 0 0 1.361.742 1.312 1.312 0 0 0 1.114-1.114l.866-8.042 6.31 5.073a1.126 1.126 0 0 0 1.485 0 1.1 1.1 0 0 0 .25-1.36z" class="cls-1" transform="translate(-50.48 -43.38)"/>
        </g>
        <g id="Group_49" transform="translate(41.202 24.003)">
            <path id="Path_103" d="M47.786 20.4a13.486 13.486 0 1 0 0 26.973 13.486 13.486 0 1 0 0-26.973zm0 24.5A11.012 11.012 0 1 1 58.8 33.886 11.036 11.036 0 0 1 47.786 44.9z" class="cls-1" transform="translate(-34.3 -20.4)"/>
        </g>
        <g id="Group_50">
            <path id="Path_104" d="M68.185 57.792l1.361-5.073 5.2-1.114a1.136 1.136 0 0 0 .742-.495 1.315 1.315 0 0 0 .124-.99l-1.361-6.434 4.578-4.7a1.2 1.2 0 0 0 0-1.732L74.5 33.17l1.48-5.57a1.4 1.4 0 0 0-.124-.99 1.819 1.819 0 0 0-.742-.619l-5.073-1.361-1.241-5.071a1.357 1.357 0 0 0-1.485-.99l-6.434 1.361-4.7-4.578a1.2 1.2 0 0 0-1.732 0l-4.083 4.207-4.825-1.237c-.371-.742-.742-1.485-1.114-2.1.866-1.237 2.722-3.588 3.093-3.959a1.325 1.325 0 0 0-.124-1.732l-3.833-3.963a1.486 1.486 0 0 0-1.732 0l-4.083 3.093a20.176 20.176 0 0 0-6.063-2.475l-.742-5.073A1.316 1.316 0 0 0 29.705 1h-5.568A1.316 1.316 0 0 0 22.9 2.114l-.619 5.073a21.577 21.577 0 0 0-6.063 2.475c-1.361-.99-4.083-3.093-4.083-3.093a1.157 1.157 0 0 0-1.608.124l-3.835 3.958a1.166 1.166 0 0 0-.124 1.608l3.093 4.083a21.577 21.577 0 0 0-2.475 6.063l-5.073.742A1.316 1.316 0 0 0 1 24.385v5.568a1.316 1.316 0 0 0 1.114 1.237l5.073.619a21.577 21.577 0 0 0 2.475 6.063c-.99 1.361-3.093 4.083-3.093 4.083a1.157 1.157 0 0 0 .124 1.608l3.959 3.959a1.166 1.166 0 0 0 1.608.124l4.083-3.093a20.176 20.176 0 0 0 6.063 2.475l.619 5.073a1.316 1.316 0 0 0 1.237 1.114h5.568a1.316 1.316 0 0 0 1.236-1.115l.742-5.073a25.136 25.136 0 0 0 4.826-1.727l-1.114 4.2a1.4 1.4 0 0 0 .124.99 1.819 1.819 0 0 0 .742.619l5.073 1.361 1.114 5.073a1.357 1.357 0 0 0 1.485.99l6.434-1.361 4.7 4.578a1.2 1.2 0 0 0 1.732 0l4.083-4.207 5.693 1.486a2.479 2.479 0 0 0 1.485-1.237zM30.448 44.8a1.343 1.343 0 0 0-.99.99l-.619 4.825h-3.464l-.619-4.825a1.51 1.51 0 0 0-.99-1.114 16.121 16.121 0 0 1-6.681-2.846 1.578 1.578 0 0 0-1.485 0l-3.836 2.97-2.474-2.474c.99-1.237 2.6-3.464 2.969-3.959a1.578 1.578 0 0 0 0-1.485A16.617 16.617 0 0 1 9.537 30.2a1.33 1.33 0 0 0-1.114-.99l-4.949-.371v-3.464l4.826-.619c.495-.124.99-.495.99-.99a20.15 20.15 0 0 1 2.722-6.805 1.578 1.578 0 0 0 0-1.485l-2.846-3.835 2.475-2.475c1.237.99 3.464 2.6 3.836 2.97a1.3 1.3 0 0 0 1.608 0 15.93 15.93 0 0 1 6.681-2.722 1.33 1.33 0 0 0 .99-1.114l.495-4.825h3.464l.619 4.825c.124.495.495.99.99.99a16.121 16.121 0 0 1 6.681 2.846 1.578 1.578 0 0 0 1.485 0l3.836-2.97 2.474 2.475C43.81 13 41.831 15.6 41.831 15.6a1.126 1.126 0 0 0 0 1.485c.495.742.866 1.485 1.361 2.351l-1.237 4.949-.866.124a14.225 14.225 0 1 0-13.982 16.827 13.926 13.926 0 0 0 5.939-1.361l2.846 2.725a18.377 18.377 0 0 1-5.444 2.1zm6.31-19.425a1.136 1.136 0 0 0-.742.495 1.315 1.315 0 0 0-.124.99l1.361 6.434-.371.247-2.846 2.97a11.265 11.265 0 0 1-7.053 2.351A11.754 11.754 0 1 1 38.614 25zM60.885 54.7a1.255 1.255 0 0 0-1.237.371l-3.712 3.836-4.207-4.331a1.727 1.727 0 0 0-1.114-.371l-5.939 1.237-.99-4.7a1.414 1.414 0 0 0-.866-.99l-4.578-1.237 1.358-5.076a1.255 1.255 0 0 0-.371-1.237c-.619-.619-3.093-3.093-3.836-3.712l.371-.371.128-.119 3.708-3.841a1.727 1.727 0 0 0 .371-1.114l-1.237-5.815 4.7-.99a1.414 1.414 0 0 0 .99-.866l1.242-4.574 5.2 1.361a1.255 1.255 0 0 0 1.237-.371l3.712-3.836 4.331 4.207a1.727 1.727 0 0 0 1.114.371l5.94-1.24.99 4.7a1.414 1.414 0 0 0 .866.99l4.578 1.237L71.9 33.17a1.255 1.255 0 0 0 .371 1.237l3.829 3.712-4.2 4.33a1.727 1.727 0 0 0-.371 1.114l1.237 5.815-4.578 1.114a1.414 1.414 0 0 0-.99.866l-1.237 4.578z" class="cls-1" transform="translate(-1 -1)"/>
        </g>
        <g id="Group_51" transform="translate(46.578 32.293)">
            <path id="Path_105" d="M55.045 27.471a1.2 1.2 0 0 0-1.732 0l-8.29 8.537-4.207-4.825a1.325 1.325 0 0 0-1.732-.124 1.2 1.2 0 0 0-.124 1.732l5.073 5.815a1.123 1.123 0 0 0 .866.371 1.337 1.337 0 0 0 .866-.371l9.28-9.527a1.057 1.057 0 0 0 0-1.608z" class="cls-1" transform="translate(-38.645 -27.1)"/>
        </g>
    </g>
</svg>
