<svg xmlns="http://www.w3.org/2000/svg" width="12.715" height="17.093" viewBox="0 0 12.715 17.093">
  <g id="noun_Location_1755662" transform="translate(-21 -11.014)">
    <g id="Group_75" data-name="Group 75" transform="translate(21 11.014)">
      <path id="Path_137" data-name="Path 137" d="M27.357,963.376A6.364,6.364,0,0,0,21,969.733a5.092,5.092,0,0,0,.952,3.09l5.042,7.453a.438.438,0,0,0,.726,0l5.042-7.453a5.09,5.09,0,0,0,.952-3.09A6.364,6.364,0,0,0,27.357,963.376Zm0,.877a5.474,5.474,0,0,1,5.481,5.481,4.037,4.037,0,0,1-.8,2.6l-4.679,6.918-4.679-6.919a4.036,4.036,0,0,1-.8-2.6A5.474,5.474,0,0,1,27.357,964.253Zm0,2.192a3.069,3.069,0,1,0,3.069,3.069A3.076,3.076,0,0,0,27.357,966.445Zm0,.877a2.192,2.192,0,1,1-2.192,2.192A2.186,2.186,0,0,1,27.357,967.322Z" transform="translate(-21 -963.376)" fill="#d0d4d8"/>
    </g>
  </g>
</svg>
