<svg xmlns="http://www.w3.org/2000/svg" width="65.502" height="73.87" viewBox="0 0 65.502 73.87">
    <defs>
        <style>
            .cls-1{fill:#485d76;stroke:#fff;stroke-width:1.5px}
        </style>
    </defs>
    <g id="noun_File_3946982" transform="translate(-5.692 -2.592)">
        <g id="Layer_43" transform="translate(6.442 3.342)">
            <path id="Path_66" d="M11.037 16.13h33.392a1.391 1.391 0 1 0 0-2.783H11.037a1.391 1.391 0 0 0 0 2.783z" class="cls-1" transform="translate(-0.731 14.496)"/>
            <path id="Path_67" d="M44.474 17.335H11.081a1.391 1.391 0 1 0 0 2.783h33.393a1.391 1.391 0 1 0 0-2.783z" class="cls-1" transform="translate(-0.652 21.604)"/>
            <path id="Path_68" d="M59.246 50.782V24.275a1.336 1.336 0 0 0-.41-1.109L36.577 3.687c-.023-.02-.056-.018-.08-.037a1.36 1.36 0 0 0-.541-.248l-.3-.06H10.473a4.035 4.035 0 0 0-4.031 4.03v55.939a4.037 4.037 0 0 0 4.031 4.033h35.694a12.49 12.49 0 1 0 13.079-16.562zM37.053 7.8l17.163 15.021H38.3a1.25 1.25 0 0 1-1.247-1.25zm-26.58 56.761a1.25 1.25 0 0 1-1.249-1.25V7.372a1.249 1.249 0 0 1 1.249-1.247h23.8v15.446A4.037 4.037 0 0 0 38.3 25.6h18.294v25.182a12.392 12.392 0 0 0-6.767 2.912H16.783a1.391 1.391 0 1 0 0 2.783h30.592A12.414 12.414 0 0 0 45.4 63.17a12.275 12.275 0 0 0 .139 1.391zm47.447 8.348a9.739 9.739 0 1 1 9.74-9.739 9.739 9.739 0 0 1-9.74 9.739z" class="cls-1" transform="translate(-6.442 -3.342)"/>
            <path id="Path_69" d="M35.832 27.862l-5.359-5.337a1.383 1.383 0 0 0-.414-.273c-.013-.006-.018-.02-.031-.026h-.009a1.376 1.376 0 0 0-.7-.071 1.261 1.261 0 0 0-.173.034 1.343 1.343 0 0 0-.608.324l-.019.011-5.506 5.44a1.391 1.391 0 1 0 1.957 1.978l3.141-3.1.016 8.978a1.391 1.391 0 0 0 1.391 1.389 1.391 1.391 0 0 0 1.389-1.394l-.016-8.944 2.981 2.969a1.391 1.391 0 1 0 1.962-1.973z" class="cls-1" transform="translate(22.355 30.164)"/>
        </g>
    </g>
</svg>
