<svg xmlns="http://www.w3.org/2000/svg" width="52.062" height="54.759" viewBox="0 0 52.062 54.759">
    <g>
        <g>
            <path fill="#fefefe" stroke="#485d76" d="M52.676 2.159a.9.9 0 0 0-.825-.1L38.288 7.143a3.114 3.114 0 0 0-4.888-.656c-.015 0-.027-.008-.042-.008H32.33a3.584 3.584 0 1 0-6.91 0H24.4a.9.9 0 0 0-.9.9h-8.063A11.659 11.659 0 0 0 3.792 19.021V32.93A3.508 3.508 0 0 0 2 35.976v13.565a3.524 3.524 0 0 0 3.521 3.521h1.917a3.524 3.524 0 0 0 3.521-3.521V35.979a3.508 3.508 0 0 0-1.792-3.046V19.021a6.278 6.278 0 0 1 6.271-6.271H23.5a.9.9 0 0 0 .9.9h1.792v3.145a8.062 8.062 0 0 0-5.375 7.6v.9a.9.9 0 0 0-.9.9v3.583a.9.9 0 0 0 .9.9v10.75a.9.9 0 0 0-.9.9V45.9a.9.9 0 0 0 .9.9v6.271a2.687 2.687 0 0 0 2.683 2.678h10.75a2.687 2.687 0 0 0 2.687-2.687v-6.271a.9.9 0 0 0 .9-.9v-3.579a.9.9 0 0 0-.9-.9V30.666a.9.9 0 0 0 .9-.9v-3.579a.9.9 0 0 0-.9-.9v-.9a8.052 8.052 0 0 0-2.361-5.707 8.193 8.193 0 0 0-3.014-1.878v-3.156h1.792c.015 0 .027-.008.042-.008a3.114 3.114 0 0 0 4.892-.656l13.563 5.086a.9.9 0 0 0 1.211-.839V2.9a.9.9 0 0 0-.386-.741zM27.083 5.583a1.792 1.792 0 1 1 3.583 0 1.771 1.771 0 0 1-.245.9h-3.092a1.771 1.771 0 0 1-.245-.9zM9.167 49.541a1.73 1.73 0 0 1-1.729 1.729H5.521a1.73 1.73 0 0 1-1.729-1.729V35.979a1.73 1.73 0 0 1 1.729-1.729h1.917a1.73 1.73 0 0 1 1.729 1.729zm6.271-38.583a8.071 8.071 0 0 0-8.062 8.062v13.438H5.583V19.021a9.865 9.865 0 0 1 9.854-9.854H23.5v1.792zm20.6 16.125v1.792h-14.33v-1.792zm0 16.125V45h-14.33v-1.792zm-.9 9.854a.9.9 0 0 1-.9.9H23.5a.9.9 0 0 1-.9-.9v-6.271h12.546zm0-11.646H22.6v-10.75h12.546zm0-17.021v.9H22.6v-.9a6.271 6.271 0 1 1 12.542 0zm-5.367-8.005a8.108 8.108 0 0 0-1.792 0v-2.744h1.792zm2.687-4.536h-7.167V8.271h7.167zm3.135.9a1.344 1.344 0 0 1-1.344-1.344V8.719a1.344 1.344 0 1 1 2.687 0v2.687a1.344 1.344 0 0 1-1.344 1.344zm15.677 3.182l-12.542-4.7V8.892l12.542-4.7z" transform="translate(-18.5 127.509) translate(19 -127) translate(-2 -2)"/>
        </g>
    </g>
</svg>