<svg xmlns="http://www.w3.org/2000/svg" width="66.791" height="68.665" viewBox="0 0 66.791 68.665">
<defs>
<style>
            .cls-1{fill:#485d76;stroke:#fefefe;stroke-width:2px}
        </style>
</defs>
<g id="noun_map_location_3778278" transform="translate(-6 -5)">
<path id="Path_157" d="M70.706 25.422L59.6 20.371a1.851 1.851 0 1 0-1.533 3.369l10.022 4.56v31.1l-16.661-7.569v-17.32a1.851 1.851 0 0 0-3.7 0v17.32L31.065 59.4V36.362a1.851 1.851 0 0 0-3.7 0V59.4L10.7 51.831V20.725l8.49 3.859a1.851 1.851 0 1 0 1.531-3.369L9.617 16.166A1.851 1.851 0 0 0 7 17.851v35.172a1.85 1.85 0 0 0 1.086 1.685l20.363 9.256c.028.013.058.007.086.019a1.844 1.844 0 0 0 .677.148 1.838 1.838 0 0 0 .679-.148c.028-.011.058-.006.085-.019l19.6-8.908 19.6 8.908a1.851 1.851 0 0 0 2.617-1.685V27.107a1.851 1.851 0 0 0-1.084-1.684z" class="cls-1" transform="translate(0 8.512)"></path>
<path id="Path_158" d="M30.1 46.5a1.851 1.851 0 0 0 2.618 0 83.553 83.553 0 0 0 11.389-14.45 34.385 34.385 0 0 0 2.085-4.1 15.564 15.564 0 0 0 1.341-5.827 16.124 16.124 0 1 0-32.247 0c0 3.675 2.084 8.448 6.2 14.187A92.493 92.493 0 0 0 30.1 46.5zm1.314-36.816a12.445 12.445 0 0 1 12.421 12.44 12.164 12.164 0 0 1-1.055 4.4 31.135 31.135 0 0 1-1.857 3.642 77.065 77.065 0 0 1-9.509 12.344 89.449 89.449 0 0 1-6.914-8.358C20.9 29.128 19 24.97 19 22.124a12.445 12.445 0 0 1 12.42-12.44z" class="cls-1" transform="translate(7.056)"></path>
<path id="Path_159" d="M27.4 25.809A7.4 7.4 0 1 0 20 18.4a7.4 7.4 0 0 0 7.4 7.409zm0-11.107a3.7 3.7 0 1 1-3.7 3.7 3.7 3.7 0 0 1 3.7-3.702z" class="cls-1" transform="translate(11.065 4.256)"></path>
</g>
</svg>