<svg xmlns="http://www.w3.org/2000/svg" width="81.666" height="58.347" viewBox="0 0 81.666 58.347">
<defs>
<style>
            .cls-1{fill:#485d76}
        </style>
</defs>
<g id="noun_Handshake_2636060">
<ellipse id="Ellipse_6" cx="1.302" cy="1.216" class="cls-1" rx="1.302" ry="1.216" transform="translate(12.995 27.958)"></ellipse>
<path id="Path_77" d="M81.439 41.442a1.317 1.317 0 0 0-1.775-.308l-7.8 5.146-9.513-15.851 18.707-10.963a1.183 1.183 0 0 0 .418-1.672 1.313 1.313 0 0 0-1.755-.4l-19.5 11.426a1.314 1.314 0 0 0-.246.1 1.257 1.257 0 0 0-.262.2l-6.181 3.622-12-1.93a12.671 12.671 0 0 0-7.638.863 1.264 1.264 0 0 0-.3-.157l-5.35-1.763a1.268 1.268 0 0 0-.388-.269c-3.815-1.688-8.241-4.113-12.522-6.457-4.61-2.529-9.376-5.136-13.534-6.922a1.3 1.3 0 0 0-1.688.609 1.193 1.193 0 0 0 .639 1.608c4.049 1.736 8.755 4.316 13.31 6.811 1.362.746 2.738 1.5 4.107 2.235L8.179 46.02c-2.1-.689-4.243-1.415-6.413-2.274A1.3 1.3 0 0 0 .1 44.4a1.2 1.2 0 0 0 .689 1.589c2.7 1.07 5.339 1.93 7.888 2.762 2.27.741 4.612 1.513 6.983 2.421l6.422 4.261-1.491 2.01a4.141 4.141 0 0 0 .864 5.78l.578.43a4.212 4.212 0 0 0 2.525.836 4.357 4.357 0 0 0 .606-.042c.071-.01.139-.027.209-.04a4.131 4.131 0 0 0 1.579 2.493l.778.579a4.212 4.212 0 0 0 2.525.836 4.37 4.37 0 0 0 .569-.04 4.138 4.138 0 0 0 1.626 2.717 4.21 4.21 0 0 0 2.525.836 4.279 4.279 0 0 0 1.931-.457 4.123 4.123 0 0 0 1.328 1.685l.613.456a4.261 4.261 0 0 0 5.941-.865l1.3-1.748.549.358a4.007 4.007 0 0 0 2.985.582 3.855 3.855 0 0 0 2.5-1.666 3.734 3.734 0 0 0 .572-1.49l1.441.916a4.008 4.008 0 0 0 2.984.581 3.856 3.856 0 0 0 2.495-1.664 4.006 4.006 0 0 0 .594-1.489l.047.031a4.008 4.008 0 0 0 2.984.581 3.817 3.817 0 0 0 1.495-6.874 3.8 3.8 0 0 0 .049-6.2l1.088-1.372 15.245-10.059a1.18 1.18 0 0 0 .323-1.691zM69.711 47.6c.014.024.036.041.052.064l-4.247 2.8L55.7 34.327l4.476-2.627zM41 33.188l.075.014 12.184 1.959 10.29 16.917-.934 1.178-18.537-11.591c-1.814-1.3-3.481-1.837-4.947-1.587a3.528 3.528 0 0 0-2.2 1.266l-3.4 4.054c-1.4 1.4-2.674 2.106-3.683 2.031a2.491 2.491 0 0 1-1.771-1.158 15.349 15.349 0 0 0 1.46-3.166l1.969-5.733c2.679-5.572 9.216-4.243 9.494-4.184zm-15.779-2.213l-9.574 17.579c-1.709-.631-3.386-1.195-5.031-1.734L20.4 28.557c1.647.866 3.268 1.687 4.821 2.418zm-.43 31.07a1.615 1.615 0 0 1-1.189-.3l-.578-.43a1.784 1.784 0 0 1-.35-2.461l4.236-5.712a1.639 1.639 0 0 1 1.1-.656 1.61 1.61 0 0 1 1.189.3l.578.43a1.784 1.784 0 0 1 .351 2.46l-4.036 5.442-.2.266a1.642 1.642 0 0 1-1.1.656zm4.51 3.517l-.778-.579a1.784 1.784 0 0 1-.351-2.46l4.036-5.442.2-.266a1.642 1.642 0 0 1 1.1-.656 1.618 1.618 0 0 1 1.189.3l.778.579a1.784 1.784 0 0 1 .35 2.461l-4.238 5.711a1.642 1.642 0 0 1-1.1.656 1.611 1.611 0 0 1-1.189-.3zm5.91 3.817a1.609 1.609 0 0 1-1.189-.3 1.784 1.784 0 0 1-.35-2.462l4.235-5.717a1.641 1.641 0 0 1 1.1-.656 1.676 1.676 0 0 1 .227-.016 1.605 1.605 0 0 1 .962.32 1.78 1.78 0 0 1 .4 2.385l-3.218 4.339c-.036.049-.066.1-.1.151l-.963 1.3a1.642 1.642 0 0 1-1.1.656zm7.494 1.864a1.641 1.641 0 0 1-1.1.656 1.61 1.61 0 0 1-1.189-.3l-.613-.456a1.78 1.78 0 0 1-.4-2.385l3.218-4.339c.036-.049.066-.1.1-.15l.254-.342a1.641 1.641 0 0 1 1.1-.656 1.676 1.676 0 0 1 .227-.016 1.605 1.605 0 0 1 .962.32l.614.457a1.784 1.784 0 0 1 .35 2.461zm7.249-2.365a1.331 1.331 0 0 1-.86.58 1.355 1.355 0 0 1-1.01-.2l-.525-.345.756-1.019a4.086 4.086 0 0 0 .664-1.383l.554.359a1.472 1.472 0 0 1 .421 2.011zm13.611-4.2a1.332 1.332 0 0 1-.861.58 1.347 1.347 0 0 1-1.008-.2l-2.762-1.818a3.38 3.38 0 0 0-.328-.247 1.3 1.3 0 0 0-.23-.12l-12.551-8.262a1.316 1.316 0 0 0-1.775.309 1.18 1.18 0 0 0 .325 1.691L57.3 65.117a1.786 1.786 0 0 1 .148 2.1 1.3 1.3 0 0 1-.858.58 1.354 1.354 0 0 1-1.028-.214l-7.241-4.6a4.139 4.139 0 0 0-.867-.873l-.614-.457a4.234 4.234 0 0 0-3.132-.794c-.136.019-.269.045-.4.076a4.133 4.133 0 0 0-1.541-2.3 4.229 4.229 0 0 0-3.1-.8 4.138 4.138 0 0 0-1.626-2.716l-.778-.579a4.224 4.224 0 0 0-3.132-.794c-.071.01-.139.026-.208.04a4.131 4.131 0 0 0-1.579-2.486l-.578-.43a4.234 4.234 0 0 0-3.132-.794 4.19 4.19 0 0 0-2.809 1.658l-1.272 1.716-5.521-3.663a1.2 1.2 0 0 0-.1-.155l9.56-17.554 3.892 1.283a9.909 9.909 0 0 0-2.232 3.073 1.181 1.181 0 0 0-.049.12l-2 5.824a13.127 13.127 0 0 1-1.203 2.636 2.337 2.337 0 0 0 .069 2.641 5.036 5.036 0 0 0 3.692 2.2c1.831.136 3.772-.814 5.767-2.819.025-.025.049-.051.071-.078l3.451-4.121a1.2 1.2 0 0 0 .079-.106 1.087 1.087 0 0 1 .556-.258c.42-.072 1.368-.017 2.989 1.155.023.017.047.033.071.048l19.568 12.238a1.3 1.3 0 0 0 .363.153l.57.367a1.469 1.469 0 0 1 .42 2.01 1.321 1.321 0 0 1-1.546.529l-12.466-8.205-.017-.012a1.273 1.273 0 0 0-.128-.067c-.032-.016-.063-.037-.1-.05a1.307 1.307 0 0 0-.217-.066l-.021-.006a1.335 1.335 0 0 0-.477-.008h-.013a1.33 1.33 0 0 0-.186.05c-.017.005-.034.008-.05.014a1.315 1.315 0 0 0-.138.066c-.028.014-.057.024-.083.04s-.061.046-.092.069a1.242 1.242 0 0 0-.106.079c-.024.022-.043.049-.065.072a1.212 1.212 0 0 0-.1.113c-.02.028-.033.058-.05.086a1.223 1.223 0 0 0-.074.128c-.014.031-.021.064-.032.1a1.178 1.178 0 0 0-.043.132c-.008.036-.008.072-.013.108a1.171 1.171 0 0 0-.014.125c0 .037.006.073.009.109a1.165 1.165 0 0 0 .011.123c.007.034.02.066.029.1a1.181 1.181 0 0 0 .037.125c.013.031.032.06.047.09a1.181 1.181 0 0 0 .064.12c.019.028.044.053.065.08a1.2 1.2 0 0 0 .089.109c.024.024.055.044.082.067a1.238 1.238 0 0 0 .112.092l12.169 8.07a4.041 4.041 0 0 0 .545.3l2.353 1.549a1.451 1.451 0 0 1 .419 2.004z" class="cls-1" transform="translate(0 -16)"></path>
<ellipse id="Ellipse_7" cx=".661" cy="1.259" class="cls-1" rx=".661" ry="1.259" transform="translate(65.727 29.312)"></ellipse>
</g>
</svg>