<svg xmlns="http://www.w3.org/2000/svg" width="59.141" height="59.25" viewBox="0 0 59.141 59.25">
<path fill="none" stroke="#485d76" stroke-linecap="round" stroke-linejoin="round" stroke-width="2px" d="M38.494 12.422a13.652 13.652 0 0 1 10.785 10.785M38.494 1.5A24.574 24.574 0 0 1 60.2 23.179m-2.73 21.789v8.191a5.461 5.461 0 0 1-5.952 5.461 54.035 54.035 0 0 1-23.563-8.382 53.243 53.243 0 0 1-16.383-16.383A54.035 54.035 0 0 1 3.19 10.183 5.461 5.461 0 0 1 8.623 4.23h8.191a5.461 5.461 0 0 1 5.461 4.7 35.058 35.058 0 0 0 1.912 7.67 5.461 5.461 0 0 1-1.229 5.761l-3.468 3.467A43.686 43.686 0 0 0 35.873 42.21l3.468-3.468a5.461 5.461 0 0 1 5.759-1.228 35.058 35.058 0 0 0 7.672 1.911 5.461 5.461 0 0 1 4.698 5.543z" transform="translate(-2.165 -.396)"></path>
</svg>