<svg xmlns="http://www.w3.org/2000/svg" width="777.704" height="867.148" viewBox="0 0 777.704 867.148">
    <defs>
        <style>
            .cls-2{fill:#d0d4d8}
        </style>
    </defs>
    <g id="Group_97" opacity="0.1" transform="translate(11.56 6.905)">
        <path id="Path_160" d="M453.358 485.56a2.606 2.606 0 0 0 1.693.661 2.124 2.124 0 0 0 1.511-.6l33.246-29.521a2.221 2.221 0 0 0 .785-1.683 2.159 2.159 0 0 0-.664-1.684L263.674 227.647a2.306 2.306 0 0 0-2.115-.6 333.755 333.755 0 0 0-50.172 13.888 2.226 2.226 0 0 0-1.451 1.683 2.4 2.4 0 0 0 .6 2.164z" class="cls-2" transform="translate(71.055 -224.753)"/>
        <path id="Path_161" d="M363.283 424.9a2.363 2.363 0 0 0 1.632.662h.726a189.517 189.517 0 0 1 52.408-8.9 2.36 2.36 0 0 0 2.116-1.443 2.457 2.457 0 0 0-.544-2.526L239.306 233.357a2.488 2.488 0 0 0-2.6-.481 260.4 260.4 0 0 0-40.8 22.545 2.342 2.342 0 0 0-1.028 1.744 2.279 2.279 0 0 0 .666 1.8z" class="cls-2" transform="translate(-4.677 -196.134)"/>
        <path id="Path_162" d="M341.829 431.769a2.6 2.6 0 0 0 1.692.661 2.364 2.364 0 0 0 1.572-.6 181.213 181.213 0 0 1 34.576-26.573 2.4 2.4 0 0 0 1.209-1.744 2.1 2.1 0 0 0-.666-1.924L219.725 241.913a2.306 2.306 0 0 0-3.083 0 335.349 335.349 0 0 0-33.367 29.7 2.28 2.28 0 0 0-.725 1.683 2.162 2.162 0 0 0 .725 1.623z" class="cls-2" transform="translate(-66.821 -152.928)"/>
        <path id="Path_163" d="M302.985 300.372a2.365 2.365 0 0 0-1.632-.662h-62.987a2.357 2.357 0 0 0-2.176 1.384 2.4 2.4 0 0 0 .544 2.584l291.055 289.355a2.186 2.186 0 0 0 1.631.721 2.553 2.553 0 0 0 1.693-.721l31.071-31.624a2.334 2.334 0 0 0 0-3.306z" class="cls-2" transform="translate(202.932 139.71)"/>
        <path id="Path_164" d="M325.043 300.372a2.376 2.376 0 0 0-1.633-.662h-62.926a2.3 2.3 0 0 0-2.115 1.443 2.337 2.337 0 0 0 .483 2.527l188.537 186.729a2.178 2.178 0 0 0 1.632.721 2.424 2.424 0 0 0 .907 0 2.286 2.286 0 0 0 1.451-2.163v-61.983a2.345 2.345 0 0 0-.665-1.625z" class="cls-2" transform="translate(314.765 139.711)"/>
        <path id="Path_165" d="M336.681 299.71h-53.92a2.3 2.3 0 0 0-2.116 1.384 2.4 2.4 0 0 0 .483 2.583l53.921 53.623a2.359 2.359 0 0 0 1.631.662h.906a2.285 2.285 0 0 0 1.452-2.164v-53.623a2.293 2.293 0 0 0-2.358-2.284" class="cls-2" transform="translate(427.106 139.71)"/>
        <path id="Path_166" d="M429.565 429.515a2.183 2.183 0 0 0 1.632.723 2.662 2.662 0 0 0 1.571-.6l32.459-29.519a2.463 2.463 0 0 0 .787-1.623 2.4 2.4 0 0 0-.725-1.744L296.037 227.634a2.674 2.674 0 0 0-1.512-.661c-10.7-.721-22.848-1.5-35.542-1.5-9.37 0-18.981 0-28.35.9a2.3 2.3 0 0 0-2 1.5 2.337 2.337 0 0 0 .545 2.4z" class="cls-2" transform="translate(165.028 -232.375)"/>
        <path id="Path_167" d="M374.583 352.268a2.183 2.183 0 0 0 1.633.722 2.671 2.671 0 0 0 1.572-.6l38.627-34.148a2.455 2.455 0 0 0 .784-1.744 2.216 2.216 0 0 0-.845-1.743A404.584 404.584 0 0 0 256.045 228.3a2.363 2.363 0 0 0-2.585 1.124 2.335 2.335 0 0 0 .349 2.785z" class="cls-2" transform="translate(289.344 -218.494)"/>
        <path id="Path_168" d="M836.375 827.238a2.913 2.913 0 0 0-3.868 0C679.341 945.35 461.74 931.671 324.748 795.315c-136.743-136.417-150.456-352.574-32.037-505a2.816 2.816 0 0 0 0-3.788L259.4 253.4a2.849 2.849 0 0 0-2.237-.842 2.912 2.912 0 0 0-2.115 1.082C118.21 426.6 132.991 674 289.465 829.623s405.225 170.325 579.129 34.226a2.7 2.7 0 0 0 1.088-2.1 2.815 2.815 0 0 0-.847-2.224z" class="cls-2" transform="translate(-173.052 -96.659)"/>
        <path id="Path_169" d="M310.97 679.131A292.918 292.918 0 0 1 279.779 298.1a2.935 2.935 0 0 0 0-3.729l-30.224-30.059a2.847 2.847 0 0 0-2.236-.842 3.147 3.147 0 0 0-2.176 1.142 341.3 341.3 0 0 0 32.367 447.44c121.082 120.424 312.713 134.136 449.882 32.188a3.116 3.116 0 0 0 1.149-2.164 2.814 2.814 0 0 0-.847-2.224l-29.5-29.4a2.972 2.972 0 0 0-3.808-.3c-118.073 84.428-280.272 71.294-383.055-31.021" class="cls-2" transform="translate(-96.893 -41.979)"/>
        <path id="Path_170" d="M560.956 594.576a2.853 2.853 0 0 0-3.566-.421 209.76 209.76 0 0 1-257.19-30.071 206.929 206.929 0 0 1-30.182-255.8 3.054 3.054 0 0 0-.423-3.607l-30.224-30.06a3.039 3.039 0 0 0-2.358-.842 2.844 2.844 0 0 0-2.115 1.262 255.549 255.549 0 0 0 31.582 324.745c87.273 86.8 224.133 99.962 326.513 31.406a3.068 3.068 0 0 0 1.33-2.1 3 3 0 0 0-.847-2.345z" class="cls-2" transform="translate(-24.634 9.692)"/>
    </g>
</svg>
