<svg xmlns="http://www.w3.org/2000/svg" width="38.102" height="38.102" viewBox="0 0 38.102 38.102">
    <g>
        <path fill="#fefefe" d="M47.626 38.581h-1.283v-.947a14.4 14.4 0 0 0-14.386-14.387h-4.389a4.207 4.207 0 0 1-4.173-3.726h1.253a.476.476 0 0 0 .476-.476v-8.569a.476.476 0 0 0-.476-.476H10.476a.476.476 0 0 0-.476.476v8.569a.476.476 0 0 0 .476.476h1.282v.947a14.232 14.232 0 0 0 2.842 8.583 14.232 14.232 0 0 0-2.844 8.583v.947h-1.28a.476.476 0 0 0-.476.476v8.569a.476.476 0 0 0 .476.476h14.172a.476.476 0 0 0 .476-.476v-8.569a.476.476 0 0 0-.476-.476h-1.253a4.207 4.207 0 0 1 4.173-3.726h2.966a4.207 4.207 0 0 1 4.173 3.726h-1.253a.476.476 0 0 0-.476.476v8.569a.476.476 0 0 0 .476.476h14.172a.476.476 0 0 0 .476-.476v-8.569a.476.476 0 0 0-.476-.476zM24.172 18.569h-2.591v-7.616h2.591zm-9.677 0v-7.616h2.591v7.616zm3.543-7.616h2.59v7.616h-2.59zm-7.086 0h2.59v7.616h-2.59zm0 28.581h2.59v7.616h-2.59zm9.676 0v7.616h-2.59v-7.617zm-3.542 7.616H14.5v-7.617h2.591zm7.086 0h-2.591v-7.617h2.591zm6.362-13.25h-2.966a5.162 5.162 0 0 0-5.133 4.679h-9.724v-.947a13.3 13.3 0 0 1 2.866-8.289.476.476 0 0 0 0-.588 13.3 13.3 0 0 1-2.866-8.289v-.947h9.724a5.162 5.162 0 0 0 5.133 4.681h4.389a13.449 13.449 0 0 1 13.434 13.434v.947h-9.724a5.162 5.162 0 0 0-5.133-4.681zm9.53 5.631v7.619h-2.59v-7.617zm.953 0h2.591v7.619h-2.592zm-7.086 0h2.591v7.619H33.93zM47.15 47.15h-2.59v-7.617h2.59z" transform="translate(-10 -10)"/>
    </g>
</svg>