<svg xmlns="http://www.w3.org/2000/svg" width="967.651" height="1045.5" viewBox="0 0 967.651 1045.5">
    <g id="Group_65" data-name="Group 65" transform="translate(560.866 -225.467)" opacity="0.17">
        <path id="Path_114" data-name="Path 114" d="M62.422,546.84a2.937,2.937,0,0,0,2.043.818,2.97,2.97,0,0,0,1.932-.709l41.324-35.608a2.716,2.716,0,0,0,.121-4.056l-281.25-271.142a2.991,2.991,0,0,0-2.645-.761c-17.492,3.549-40.394,8.663-62.364,16.783a2.821,2.821,0,0,0-1.8,2.028,2.7,2.7,0,0,0,.789,2.557Z" transform="translate(43.939 0.948)" fill="#d0d4d8"/>
        <path id="Path_115" data-name="Path 115" d="M-130.132,504.831a2.94,2.94,0,0,0,2.043.811,3.155,3.155,0,0,0,.895-.13,239.913,239.913,0,0,1,65.158-10.72,2.889,2.889,0,0,0,2.6-1.76,2.714,2.714,0,0,0-.646-3.006L-284.236,273.932a2.992,2.992,0,0,0-3.254-.572c-20.182,8.872-36.29,17.514-50.709,27.184a2.752,2.752,0,0,0-1.225,2.05,2.7,2.7,0,0,0,.835,2.223Z" transform="translate(30.348 4.58)" fill="#d0d4d8"/>
        <path id="Path_116" data-name="Path 116" d="M-222.845,559.619a2.926,2.926,0,0,0,2.043.812,2.965,2.965,0,0,0,1.976-.746c12.976-11.654,27.17-23.606,43.008-32.03a2.8,2.8,0,0,0,1.466-2.056,2.718,2.718,0,0,0-.819-2.361L-374.65,330.944a2.964,2.964,0,0,0-3.81-.239c-12.622,9.337-25.434,20.39-41.528,35.839a2.737,2.737,0,0,0-.856,1.977,2.755,2.755,0,0,0,.856,1.985Z" transform="translate(19.191 10.061)" fill="#d0d4d8"/>
        <path id="Path_117" data-name="Path 117" d="M15.743,716.858a2.951,2.951,0,0,0-2.051-.811h-78.3a2.905,2.905,0,0,0-2.682,1.717,2.74,2.74,0,0,0,.631,3.051l361.8,348.68a2.956,2.956,0,0,0,2.051.818h.007a2.981,2.981,0,0,0,2.059-.84l38.643-38.143a2.72,2.72,0,0,0-.023-3.925Z" transform="translate(67.618 47.16)" fill="#d0d4d8"/>
        <path id="Path_118" data-name="Path 118" d="M162.059,716.858a2.948,2.948,0,0,0-2.043-.811H81.851a2.883,2.883,0,0,0-2.675,1.724,2.717,2.717,0,0,0,.631,3.043L314.149,945.838a2.968,2.968,0,0,0,2.051.827,2.891,2.891,0,0,0,1.112-.225,2.778,2.778,0,0,0,1.781-2.572V869.416a2.746,2.746,0,0,0-.848-1.977Z" transform="translate(87.692 47.16)" fill="#d0d4d8"/>
        <path id="Path_119" data-name="Path 119" d="M132.71,471.352a2.968,2.968,0,0,0,4,.087l40.378-35.528a2.731,2.731,0,0,0,.1-4.035L-33.237,228.111a2.986,2.986,0,0,0-1.856-.819c-13.307-.855-28.393-1.825-44.2-1.825-11.616,0-23.624,0-35.246,1.08a2.864,2.864,0,0,0-2.449,1.839,2.693,2.693,0,0,0,.677,2.911Z" transform="translate(60.813 0)" fill="#d0d4d8"/>
        <path id="Path_120" data-name="Path 120" d="M196.589,393.243a2.952,2.952,0,0,0,2.051.819,2.921,2.921,0,0,0,1.924-.71l48.019-41.141a2.726,2.726,0,0,0-.022-4.2C187.746,297.292,120.7,262.264,49.3,243.888a2.939,2.939,0,0,0-3.253,1.3,2.719,2.719,0,0,0,.458,3.368Z" transform="translate(83.128 1.762)" fill="#d0d4d8"/>
        <path id="Path_121" data-name="Path 121" d="M278.977,1096.8a3.725,3.725,0,0,0-4.779-.289c-84.6,63.212-185.856,96.617-292.8,96.617-127.821,0-247.957-47.95-338.286-135.028-169.876-163.769-187.007-425.313-39.838-608.371a3.392,3.392,0,0,0-.3-4.606l-41.392-39.9a3.726,3.726,0,0,0-2.765-1.022,3.7,3.7,0,0,0-2.63,1.326c-170.868,208.35-152.812,507.1,42.009,694.906a541.731,541.731,0,0,0,179.231,114.776,559.341,559.341,0,0,0,204.934,38.57,560.326,560.326,0,0,0,175.587-28.068,548.111,548.111,0,0,0,161.1-84.781,3.477,3.477,0,0,0,1.368-2.535,3.428,3.428,0,0,0-1.052-2.672Z" transform="translate(0 17.182)" fill="#d0d4d8"/>
        <path id="Path_122" data-name="Path 122" d="M-293.2,977.342c-128.424-123.8-144.728-316.861-38.763-459.06a3.4,3.4,0,0,0-.375-4.505l-37.614-36.252a3.7,3.7,0,0,0-2.818-1.014,3.661,3.661,0,0,0-2.645,1.39c-61.574,79.495-91.4,177.771-83.994,276.727s51.559,192.083,124.328,262.225a427.189,427.189,0,0,0,141.257,90.468A441.057,441.057,0,0,0-32.12,1137.778a442.174,442.174,0,0,0,133-20.382,433.19,433.19,0,0,0,123.111-61.662,3.454,3.454,0,0,0,1.443-2.542,3.416,3.416,0,0,0-1.045-2.724l-36.719-35.4A3.73,3.73,0,0,0,183,1014.7c-63.131,43.713-137.53,66.826-215.175,66.826-98.625,0-191.328-37.005-261.024-104.186" transform="translate(13.753 24.132)" fill="#d0d4d8"/>
        <path id="Path_123" data-name="Path 123" d="M94.386,931.125a3.719,3.719,0,0,0-4.456-.5A266.7,266.7,0,0,1-46.15,967.8c-69.418,0-134.659-26.032-183.715-73.322-85.416-82.348-100.841-209.111-37.5-308.278a3.39,3.39,0,0,0-.525-4.295l-37.524-36.18a3.722,3.722,0,0,0-2.915-1.007,3.638,3.638,0,0,0-2.652,1.528,302.529,302.529,0,0,0-45.232,98.182,297.822,297.822,0,0,0-7.89,104.224,300.239,300.239,0,0,0,28.492,100.818,308.452,308.452,0,0,0,63.948,87.983,320.062,320.062,0,0,0,105.658,67.688A330.294,330.294,0,0,0-44.782,1028a327.906,327.906,0,0,0,178.93-52.666,3.414,3.414,0,0,0,.541-5.367Z" transform="translate(26.761 30.688)" fill="#d0d4d8"/>
    </g>
</svg>