<svg xmlns="http://www.w3.org/2000/svg" width="30.213" height="41.883" viewBox="0 0 30.213 41.883">
    <defs>
        <style>
            .cls-1{fill:#fefefe}
        </style>
    </defs>
    <g id="noun_natural_gas_2570309" transform="translate(-15.181 -.878)">
        <g id="Group_122" transform="translate(15.181 .878)">
            <path id="Path_186" d="M45.393 36.029V11.884c0-1.4-2.018-2.35-4.9-2.952v-5.3c0-1.517-1.609-2.751-3.586-2.751H23.663c-1.973 0-3.577 1.234-3.577 2.751v5.3c-2.886.6-4.905 1.552-4.905 2.952v24.145c0 1.6 1.7 2.909 3.783 2.909h1.446L18 42.02a.394.394 0 0 0-.009.493.689.689 0 0 0 .554.248h24.21a.577.577 0 0 0 .636-.489.434.434 0 0 0-.173-.336l-2.345-3h.737c2.09.003 3.783-1.303 3.783-2.907zM16.452 16.648h27.67v17.944h-27.67zm4.905-13.019a2.1 2.1 0 0 1 2.306-1.773h13.242a2.1 2.1 0 0 1 2.314 1.773V8.7a49.258 49.258 0 0 0-5.187-.526V4.906H35.2a.577.577 0 0 0 .636-.489.577.577 0 0 0-.636-.489h-9.826a.577.577 0 0 0-.636.489.577.577 0 0 0 .636.489h1.17v3.266a49.286 49.286 0 0 0-5.187.526V3.629zm11.4 1.277v3.21c-1.689-.058-3.255-.058-4.945 0v-3.21zm11.361 6.977v3.787H16.452v-3.786c0-3.712 27.67-3.699 27.67 0zm-2.508 29.9H19.668l2.225-2.844h17.5zm0-3.822H18.963a2.282 2.282 0 0 1-2.511-1.931v-.46h27.67v.46a2.282 2.282 0 0 1-2.512 1.931z" class="cls-1" transform="translate(-15.181 -.878)"/>
            <path id="Path_187" d="M30.151 27.573c-.233.277-5.714 6.828-5.714 10.071a6.047 6.047 0 0 0 .783 2.993 6.116 6.116 0 0 0 10.682.006 6.054 6.054 0 0 0 .786-3c0-3.243-5.482-9.793-5.715-10.071a.555.555 0 0 0-.822.001zm.9 15.069a2.2 2.2 0 0 1-2.674-2.11 13.56 13.56 0 0 1 2.19-4.118 13.794 13.794 0 0 1 2.192 4.1 2.191 2.191 0 0 1-1.712 2.128zm3.918-2.525a4.957 4.957 0 0 1-1.36 1.541 3.274 3.274 0 0 0 .222-1.165c-.057-1.3-2.178-4.41-2.826-5.331a.557.557 0 0 0-.878 0c-.648.92-2.767 4.022-2.824 5.348a3.2 3.2 0 0 0 .224 1.152 4.98 4.98 0 0 1-2.015-4.017c0-2.178 3.334-6.754 5.052-8.881 1.718 2.126 5.053 6.7 5.053 8.881a4.983 4.983 0 0 1-.651 2.472z" class="cls-1" transform="translate(-15.459 -11.041)"/>
        </g>
    </g>
</svg>