<svg xmlns="http://www.w3.org/2000/svg" width="63.333" height="73" viewBox="0 0 63.333 73">
<defs>
<style>
            .cls-1{fill:#485d76}
        </style>
</defs>
<g id="Group_64" transform="translate(-256 -3581)">
<g id="noun_trusted_1920010" transform="translate(256 3581)">
<path id="Path_106" d="M48.476 26.818l-1.9-1.838-15.469 14.965-5.363-5.188-1.914 1.851 7.277 7.026z" class="cls-1" transform="translate(-2.499 2.369)"></path>
<path id="Path_107" d="M8 46.366C8 63.612 25.019 77 39.667 77s31.666-13.388 31.666-30.634V9.423L39.222 4 8 9.423zm2.7-34.753l28.522-5.006 29.416 5.006v34.753c0 15.526-15.847 28.027-28.971 28.027S10.7 61.892 10.7 46.366z" class="cls-1" transform="translate(-8 -4)"></path>
<path id="Path_108" d="M36.886 64.11c9.2 0 20.886-9.516 20.886-20.205V15.721l-21.3-3.611L16 15.682V43.9c0 10.693 11.683 20.21 20.886 20.21zM18.7 17.859l17.774-3.1 18.609 3.155V43.9c0 9.125-10.255 17.6-18.191 17.6S18.7 52.964 18.7 43.9z" class="cls-1" transform="translate(-5.22 -1.538)"></path>
</g>
</g>
</svg>