<svg xmlns="http://www.w3.org/2000/svg" width="79.363" height="70.333" viewBox="0 0 79.363 70.333">
<defs>
<style>
            .cls-1{fill:#485d76}
        </style>
</defs>
<g id="noun_quality_control_1392486" transform="translate(-6.788 -14.5)">
<g id="Group_53" transform="translate(6.788 14.5)">
<path id="Path_109" d="M86.151 35.656L66.986 18.965h-7.67a20.713 20.713 0 0 0-25.694 0h-7.366L6.788 35.651v37.716h57.741l6.5 9.883a3.515 3.515 0 0 0 4.871 1l3.811-2.507a3.515 3.515 0 0 0 1.007-4.871l-2.309-3.51h7.741V35.656zm-4.168-.619h-14.74a20.694 20.694 0 0 0-5.474-13.8h4.367zm-17 .243a18.509 18.509 0 1 1-18.509-18.51 18.53 18.53 0 0 1 18.504 18.511zM57.765 55.7l-1.41-2.144a20.7 20.7 0 0 0 2.751-1.8l1.4 2.135zm-11.3.362a20.858 20.858 0 0 0 3.18-.243v15.276H43.3V55.819a20.763 20.763 0 0 0 3.169.243zM27.1 21.237h4.07a20.691 20.691 0 0 0-5.474 13.8h-14.7zM9.059 37.309h16.73a20.827 20.827 0 0 0 15.236 18.024V71.1H9.059zM51.92 71.1V55.331a20.635 20.635 0 0 0 2.359-.8l1.847 2.809a3.423 3.423 0 0 0 .183 3.526L63.036 71.1zM79 79.061a1.239 1.239 0 0 1-.536.789l-3.811 2.507A1.277 1.277 0 0 1 72.927 82L58.205 59.62a1.246 1.246 0 0 1 .356-1.725l3.813-2.508a1.245 1.245 0 0 1 1.725.355l14.722 22.383a1.232 1.232 0 0 1 .179.936zM76.916 71.1L66 54.494a3.511 3.511 0 0 0-2.94-1.584 3.614 3.614 0 0 0-.455.033l-1.761-2.676a20.729 20.729 0 0 0 6.307-12.958h9.56v12.765h2.269V37.309h4.9V71.1z" class="cls-1" transform="translate(-6.788 -14.5)"></path>
<path id="Path_110" d="M48.83 51.979a16.241 16.241 0 1 0-16.24-16.24 16.259 16.259 0 0 0 16.24 16.24zm0-30.21a13.969 13.969 0 1 1-13.969 13.97 13.984 13.984 0 0 1 13.969-13.97z" class="cls-1" transform="translate(-9.149 -14.957)"></path>
<path id="Path_111" d="M58.836 30.064l-1.606-1.606-11.99 11.991-3.415-3.416-1.606 1.606 5.021 5.021z" class="cls-1" transform="translate(-9.847 -15.777)"></path>
<path id="Path_112" d="M11.75 63.753h2.271v-18.4h7.949v-2.27H11.75z" class="cls-1" transform="translate(-7.242 -17.115)"></path>
<path id="Rectangle_31" d="M0 0H2.271V5.535H0z" class="cls-1" transform="translate(4.508 48.838)"></path>
<path id="Rectangle_32" d="M0 0H2.271V10.202H0z" class="cls-1" transform="translate(69.921 37.647)"></path>
</g>
</g>
</svg>