<svg xmlns="http://www.w3.org/2000/svg" width="49.038" height="50.698" viewBox="0 0 49.038 50.698">
    <defs>
        <style>
            .cls-1{fill:#fefefe;stroke:#485d76;stroke-width:.8px;fill-rule:evenodd}
        </style>
    </defs>
    <g id="noun_HVAC_3764477" transform="translate(-3.6 -2.6)">
        <path id="Path_189" d="M29.626 15A14.625 14.625 0 1 0 44.25 29.627 14.63 14.63 0 0 0 29.626 15zm0 1.721a12.9 12.9 0 1 1-12.9 12.9 12.909 12.909 0 0 1 12.9-12.898z" class="cls-1" transform="translate(-1.537 -1.676)"/>
        <path id="Path_190" d="M23.247 14.467A16.347 16.347 0 0 1 45.2 36.42a.861.861 0 0 0 1.537.776A18.07 18.07 0 0 0 22.471 12.93a.861.861 0 0 0 .776 1.537z" class="cls-1" transform="translate(-2.514 -1.117)"/>
        <path id="Path_191" d="M36.421 45.48A16.351 16.351 0 0 1 13.75 25.161a.861.861 0 0 0-1.612-.6A18.071 18.071 0 0 0 37.2 47.017a.861.861 0 0 0-.776-1.537z" class="cls-1" transform="translate(-.978 -2.933)"/>
        <path id="Path_192" d="M48.3 47.374V45.86a.86.86 0 0 1 .86-.86h3.44a.86.86 0 0 1 .86.86v1.514l1.287-.751a.861.861 0 0 1 1.18.316l1.721 3.011a.859.859 0 0 1-.313 1.17l-1.307.763 1.307.763a.859.859 0 0 1 .313 1.17l-1.721 3.011a.861.861 0 0 1-1.18.316l-1.287-.751v1.514a.86.86 0 0 1-.86.86h-3.438a.86.86 0 0 1-.86-.86v-1.515l-1.287.751a.861.861 0 0 1-1.18-.316l-1.721-3.011a.859.859 0 0 1 .313-1.17l1.307-.763-1.307-.763a.859.859 0 0 1-.313-1.17l1.721-3.011a.861.861 0 0 1 1.18-.316zm3.441-.653h-1.719v2.151a.86.86 0 0 1-1.294.743L46.9 48.547l-.867 1.517 1.845 1.076a.861.861 0 0 1 0 1.487L46.03 53.7l.867 1.517 1.831-1.068a.86.86 0 0 1 1.294.743v2.151h1.721v-2.149a.86.86 0 0 1 1.294-.743l1.831 1.068.867-1.517-1.845-1.076a.861.861 0 0 1 0-1.487l1.845-1.076-.867-1.517-1.831 1.068a.86.86 0 0 1-1.294-.743z" class="cls-1" transform="translate(-5.587 -5.867)"/>
        <path id="Path_193" d="M27.635 28.051a1.833 1.833 0 0 0-.176-1.322l-.81-1.466a4.214 4.214 0 1 1 7.373 0l-.81 1.466a1.833 1.833 0 0 0-.176 1.322 3.442 3.442 0 0 1 .505.879 1.822 1.822 0 0 0 1.232.511l1.673.03a4.22 4.22 0 1 1-3.686 6.392l-.86-1.435a1.822 1.822 0 0 0-1.12-.831 3.444 3.444 0 0 1-.883 0 1.822 1.822 0 0 0-1.12.831l-.863 1.436a4.216 4.216 0 1 1-3.686-6.392l1.673-.03a1.822 1.822 0 0 0 1.232-.511 3.442 3.442 0 0 1 .505-.879zm6.049 2.929a3.429 3.429 0 0 1-1.008 1.726 3.564 3.564 0 0 1 .7.836l.863 1.437a2.495 2.495 0 1 0 2.181-3.787l-1.673-.029a3.549 3.549 0 0 1-1.063-.183zm-6.7 0a3.549 3.549 0 0 1-1.059.182l-1.673.029a2.5 2.5 0 1 0 2.181 3.787l.863-1.437a3.564 3.564 0 0 1 .7-.836 3.429 3.429 0 0 1-1.009-1.725zm3.348-2.516a1.721 1.721 0 1 1-1.721 1.721 1.721 1.721 0 0 1 1.721-1.721zm1-1.573a3.531 3.531 0 0 1 .369-.994l.81-1.467a2.493 2.493 0 1 0-4.362 0l.81 1.467a3.531 3.531 0 0 1 .369.994 3.462 3.462 0 0 1 2 0z" class="cls-1" transform="translate(-2.247 -2.235)"/>
        <path id="Path_194" d="M36.72 55.86a.86.86 0 1 1-.86-.86.86.86 0 0 1 .86.86z" class="cls-1" transform="translate(-4.33 -7.264)"/>
        <path id="Path_195" d="M1.721.86a.86.86 0 1 0-.86.86.86.86 0 0 0 .86-.86z" class="cls-1" transform="rotate(180 12.754 4.081)"/>
        <path id="Path_196" d="M27.86 56.72h3.44a.86.86 0 0 0 0-1.72h-3.44a.86.86 0 0 0 0 1.721z" class="cls-1" transform="translate(-3.213 -7.263)"/>
        <path id="Path_197" d="M35.3 7h-3.44a.86.86 0 0 0 0 1.721h3.44A.86.86 0 0 0 35.3 7z" class="cls-1" transform="translate(-3.772 -.559)"/>
        <path id="Path_198" d="M10.7 3.331a.861.861 0 0 0-1.358 0 49.5 49.5 0 0 0-4.131 6.3A9.093 9.093 0 0 0 4 13.324a6.022 6.022 0 0 0 12.044 0 9.093 9.093 0 0 0-1.212-3.692 49.5 49.5 0 0 0-4.131-6.3zm-.679 9.641a17.089 17.089 0 0 0-1.277 1.862A2.664 2.664 0 0 0 8.3 15.9a1.721 1.721 0 0 0 3.441 0 2.664 2.664 0 0 0-.444-1.071 17.089 17.089 0 0 0-1.277-1.862zm3.442 2.928a4.28 4.28 0 0 0 .86-2.58 7.378 7.378 0 0 0-1.018-2.9 43.166 43.166 0 0 0-3.284-5.131 43.166 43.166 0 0 0-3.284 5.131 7.378 7.378 0 0 0-1.018 2.9 4.28 4.28 0 0 0 .86 2.58 4.377 4.377 0 0 1 .671-1.925 23.068 23.068 0 0 1 2.117-2.936.86.86 0 0 1 1.306 0 23.068 23.068 0 0 1 2.117 2.936 4.377 4.377 0 0 1 .673 1.925z" class="cls-1"/>
        <path id="Path_199" d="M5.72 4.86A.86.86 0 1 1 4.86 4a.86.86 0 0 1 .86.86z" class="cls-1" transform="translate(0 -.14)"/>
        <path id="Path_200" d="M17.72 4.86a.86.86 0 1 1-.86-.86.86.86 0 0 1 .86.86z" class="cls-1" transform="translate(-1.676 -.14)"/>
    </g>
</svg>